name D:\school\WTK\thesis\model\3dpredictsim\Results\PredSim_adaptations\Pog_s1_tmt_bCst_d05_k500_ig24.mot
datacolumns 128
datarows 4
range 1.07495698 1.10720569
endheader
time	pelvis_tilt	pelvis_list	pelvis_rotation	pelvis_tx	pelvis_ty	pelvis_tz	hip_flexion_l	hip_adduction_l	hip_rotation_l	hip_flexion_r	hip_adduction_r	hip_rotation_r	knee_angle_l	knee_angle_r	ankle_angle_l	ankle_angle_r	subtalar_angle_l	subtalar_angle_r	tmt_angle_l	tmt_angle_r	mtp_angle_l	mtp_angle_r	lumbar_extension	lumbar_bending	lumbar_rotation	arm_flex_l	arm_add_l	arm_rot_l	arm_flex_r	arm_add_r	arm_rot_r	elbow_flex_l	elbow_flex_r	pro_sup_l	pro_sup_r	glut_med1_l/activation	glut_med2_l/activation	glut_med3_l/activation	glut_min1_l/activation	glut_min2_l/activation	glut_min3_l/activation	semimem_l/activation	semiten_l/activation	bifemlh_l/activation	bifemsh_l/activation	sar_l/activation	add_long_l/activation	add_brev_l/activation	add_mag1_l/activation	add_mag2_l/activation	add_mag3_l/activation	tfl_l/activation	pect_l/activation	grac_l/activation	glut_max1_l/activation	glut_max2_l/activation	glut_max3_l/activation	iliacus_l/activation	psoas_l/activation	quad_fem_l/activation	gem_l/activation	peri_l/activation	rect_fem_l/activation	vas_med_l/activation	vas_int_l/activation	vas_lat_l/activation	med_gas_l/activation	lat_gas_l/activation	soleus_l/activation	tib_post_l/activation	flex_dig_l/activation	flex_hal_l/activation	tib_ant_l/activation	per_brev_l/activation	per_long_l/activation	per_tert_l/activation	ext_dig_l/activation	ext_hal_l/activation	ercspn_l/activation	intobl_l/activation	extobl_l/activation	glut_med1_r/activation	glut_med2_r/activation	glut_med3_r/activation	glut_min1_r/activation	glut_min2_r/activation	glut_min3_r/activation	semimem_r/activation	semiten_r/activation	bifemlh_r/activation	bifemsh_r/activation	sar_r/activation	add_long_r/activation	add_brev_r/activation	add_mag1_r/activation	add_mag2_r/activation	add_mag3_r/activation	tfl_r/activation	pect_r/activation	grac_r/activation	glut_max1_r/activation	glut_max2_r/activation	glut_max3_r/activation	iliacus_r/activation	psoas_r/activation	quad_fem_r/activation	gem_r/activation	peri_r/activation	rect_fem_r/activation	vas_med_r/activation	vas_int_r/activation	vas_lat_r/activation	med_gas_r/activation	lat_gas_r/activation	soleus_r/activation	tib_post_r/activation	flex_dig_r/activation	flex_hal_r/activation	tib_ant_r/activation	per_brev_r/activation	per_long_r/activation	per_tert_r/activation	ext_dig_r/activation	ext_hal_r/activation	ercspn_r/activation	intobl_r/activation	extobl_r/activation	
          1.07495698	         -2.92964756	         -2.17684164	          5.32959452	          1.34369623	          0.85849037	         -0.00240292	        -18.12326731	         -1.58600020	          7.10687033	         31.70502623	          3.04167330	         -2.02345094	         -6.12880362	        -14.83988121	          1.11875080	          7.37443973	          9.72433156	         -2.67972877	          2.01494960	          0.07111951	         19.98431607	         -0.12403996	         -1.95729742	          0.54406368	         -1.88922070	          7.98133823	        -13.45271800	         17.78032327	         -8.17641636	        -13.51714619	          8.10458166	         34.01797515	         13.57988311	         86.51662706	         86.51662706	          0.32016889	          0.11398026	          0.08197615	          0.32444073	          0.21985863	          0.11398119	          0.05000014	          0.05000002	          0.05000001	          0.07568002	          0.11398104	          0.05000002	          0.05000001	          0.05000002	          0.05000006	          0.05000004	          0.32560964	          0.05000012	          0.05000005	          0.05000063	          0.05000030	          0.05000010	          0.39008676	          0.63768142	          0.05000001	          0.05000007	          0.05132568	          0.20680153	          0.05000021	          0.05000011	          0.05000011	          0.33038904	          0.44460207	          0.31440630	          0.27566723	          0.29464474	          0.38448043	          0.05000000	          0.05926011	          0.15778805	          0.05000004	          0.05000000	          0.05000003	          0.05000000	          0.05000000	          0.05000000	          0.05000008	          0.05000003	          0.05895787	          0.05000002	          0.05000003	          0.05000017	          0.05895798	          0.05895798	          0.21331005	          0.05000009	          0.05000036	          0.10886827	          0.17644966	          0.17846898	          0.15803661	          0.10975197	          0.05895800	          0.05000628	          0.05896404	          0.05895815	          0.06952074	          0.10245244	          0.05000002	          0.05000003	          0.18583314	          0.05000033	          0.05000007	          0.05000002	          0.09100778	          0.09648859	          0.08114730	          0.05635122	          0.05000030	          0.05895796	          0.05000001	          0.05000032	          0.05000071	          0.48866925	          0.36978802	          0.21400595	          0.25847520	          0.53377607	          0.24690985	          0.06952114	          0.11099903	          0.11398106	
          1.08570655	         -2.92503008	         -2.27498538	          5.62055134	          1.35969105	          0.85741937	         -0.00220702	        -17.98477447	         -1.88923929	          6.88545865	         31.13286571	          3.41765983	         -1.83144128	         -8.07310447	        -14.77451478	          0.38706732	          6.78366069	         10.68159928	         -3.16002632	          1.96006179	          0.08016937	         21.13639908	         -0.10454874	         -1.77072323	          0.76821749	         -1.96271364	          7.86053174	        -13.46178133	         18.00586647	         -9.19274708	        -13.51016840	          7.97495583	         35.11965105	         13.42361429	         86.51662706	         86.51662706	          0.27152299	          0.09666229	          0.06952084	          0.27514577	          0.18645369	          0.09666309	          0.05000172	          0.05000018	          0.05000039	          0.06418133	          0.09666298	          0.12883263	          0.07463944	          0.06952197	          0.05015644	          0.06952087	          0.27613708	          0.05002242	          0.05000182	          0.05000075	          0.05000055	          0.05000097	          0.33081765	          0.55987642	          0.05000042	          0.05895877	          0.05895800	          0.17538047	          0.05000073	          0.18687084	          0.17344979	          0.28019029	          0.37704999	          0.26663600	          0.24582044	          0.24987716	          0.32606330	          0.05000000	          0.05025625	          0.15399370	          0.05000002	          0.05000000	          0.05000002	          0.05000000	          0.06952086	          0.05000000	          0.05591222	          0.05000053	          0.05000002	          0.05895800	          0.05895769	          0.05000008	          0.05000001	          0.05000003	          0.18090013	          0.05000004	          0.05000021	          0.09667423	          0.14964039	          0.25231130	          0.17579385	          0.09307687	          0.05000005	          0.05000081	          0.05000522	          0.05000050	          0.05895793	          0.11800228	          0.05182559	          0.06952049	          0.52572004	          0.14231715	          0.10463161	          0.06952092	          0.19161404	          0.19725652	          0.16868069	          0.05000000	          0.05000000	          0.05000000	          0.05000005	          0.05895804	          0.05000156	          0.54635879	          0.32867088	          0.22372376	          0.42172020	          0.57146109	          0.23741326	          0.05895821	          0.09413402	          0.09666298	
          1.09645612	         -2.91650990	         -2.37257453	          5.88707181	          1.37598763	          0.85636039	         -0.00202377	        -17.77508705	         -2.18635325	          6.65106465	         30.42402336	          3.73393099	         -1.57132682	        -10.14304411	        -15.19213700	         -0.49728514	          6.17198191	         11.59491264	         -3.66323201	          1.86205347	         -0.04873840	         22.18469325	         -0.14588231	         -1.56153992	          0.99889888	         -2.02645019	          7.65120012	        -13.46996429	         18.15834552	        -10.23143208	        -13.50654208	          7.87460615	         36.19372048	         13.32341863	         86.51662706	         86.51662706	          0.35679417	          0.08197559	          0.05895797	          0.23334062	          0.15812425	          0.08197627	          0.05000039	          0.05000013	          0.05000013	          0.05442974	          0.08197621	          0.14739684	          0.13439467	          0.05895906	          0.05895814	          0.05895810	          0.23418136	          0.08410327	          0.05887578	          0.05000289	          0.05000795	          0.05895788	          0.28055380	          0.53486465	          0.05895794	          0.05000083	          0.05000004	          0.14873347	          0.09183966	          0.15847811	          0.14709629	          0.23761866	          0.31976166	          0.22612378	          0.20847091	          0.21191129	          0.27652182	          0.05000000	          0.05000005	          0.17614756	          0.05000001	          0.05000000	          0.05000001	          0.05605986	          0.05895798	          0.05224389	          0.25976962	          0.05000001	          0.26312146	          0.05000005	          0.05000002	          0.23065665	          0.07882911	          0.05000017	          0.16439351	          0.05000002	          0.05000009	          0.08198589	          0.21862304	          0.21397561	          0.14908429	          0.12773888	          0.05000009	          0.05895868	          0.12807224	          0.05000002	          0.05000002	          0.10007334	          0.05895795	          0.05895779	          0.44584303	          0.12069374	          0.15355426	          0.05895803	          0.16250053	          0.16728571	          0.14305164	          0.05895801	          0.05895804	          0.05895797	          0.05895796	          0.05000009	          0.05000020	          0.46334596	          0.34526781	          0.18973157	          0.35764479	          0.58936937	          0.20134110	          0.05000021	          0.10495874	          0.08197617	
          1.10720569	         -2.90572408	         -2.46909435	          6.12132097	          1.39242692	          0.85531710	         -0.00182994	        -17.47342661	         -2.47353798	          6.41075843	         29.58358522	          4.00950815	         -1.30132347	        -12.35504164	        -15.61398947	         -1.52933539	          5.70073450	         12.44930317	         -4.16403460	          1.74257349	         -0.02324121	         23.05417155	         -0.16671974	         -1.34634426	          1.23410245	         -2.08156511	          7.37480780	        -13.48248053	         18.24938062	        -11.25065664	        -13.50610687	          7.81852663	         37.23255216	         13.25326685	         86.51662706	         86.51662706	          0.30417663	          0.06952037	          0.05000002	          0.35460028	          0.13409913	          0.06952095	          0.05000056	          0.05000002	          0.05000002	          0.05000004	          0.06952112	          0.13249997	          0.11397499	          0.05000094	          0.05000023	          0.05000015	          0.24642147	          0.07132506	          0.05000009	          0.05000025	          0.05000014	          0.05000010	          0.23792696	          0.49745527	          0.05000001	          0.05000011	          0.05000008	          0.13049788	          0.07788575	          0.13439935	          0.12994547	          0.20151528	          0.27117762	          0.19176692	          0.17679620	          0.17971387	          0.23450758	          0.05000000	          0.09482640	          0.18044350	          0.05000002	          0.05000084	          0.05000004	          0.07680417	          0.05000000	          0.05000000	          0.31836778	          0.28524889	          0.35235620	          0.16393750	          0.21206785	          0.19561117	          0.06685196	          0.09212676	          0.13941584	          0.08197620	          0.05001428	          0.06952910	          0.18540583	          0.18146454	          0.12643272	          0.14586687	          0.05000007	          0.05000065	          0.10861322	          0.21548672	          0.16400126	          0.12122911	          0.05000001	          0.05000001	          0.37810241	          0.10235577	          0.13022353	          0.05000005	          0.13781051	          0.17378465	          0.12131669	          0.05000003	          0.05000006	          0.05000000	          0.05000000	          0.05895794	          0.05000070	          0.58798193	          0.42024090	          0.21471243	          0.62580623	          0.63955957	          0.32693867	          0.07500243	          0.08985877	          0.06952085	
